<?xml version="1.0" encoding="utf-8"?>
<!-- Generator: Adobe Illustrator 16.0.0, SVG Export Plug-In . SVG Version: 6.00 Build 0)  -->
<!DOCTYPE svg PUBLIC "-//W3C//DTD SVG 1.1//EN" "http://www.w3.org/Graphics/SVG/1.1/DTD/svg11.dtd">
<svg version="1.1" id="Capa_1" xmlns="http://www.w3.org/2000/svg" xmlns:xlink="http://www.w3.org/1999/xlink" x="0px" y="0px"
	 width="512px" height="512px" viewBox="0 0 512 512" enable-background="new 0 0 512 512" xml:space="preserve">
<g>
	<path fill="#FFFFFF" d="M420.83,16.048h-99.875v15.284c0,35.816-29.139,64.955-64.955,64.955
		c-35.816,0-64.955-29.139-64.955-64.955V16.048H91.169L0,72.574V223.14h80.239v272.812h351.522V223.14H512V72.574L420.83,16.048z
		 M481.433,192.573h-80.237v272.812H110.806V192.573H30.567V89.586l69.308-42.972h61.823c7.338,45.431,46.831,80.239,94.301,80.239
		c47.47,0,86.964-34.808,94.301-80.239h61.824l69.309,42.972V192.573L481.433,192.573z"/>
	<path fill="#FFFFFF" d="M170.492,229.583h14.368v141.554h30.567V199.016h-44.935V229.583z"/>
	<path fill="#FFFFFF" d="M301.393,196.185c-30.545,0-55.397,24.852-55.397,55.399v64.152c0,30.548,24.853,55.399,55.397,55.399
		c30.548,0,55.398-24.853,55.398-55.399v-64.152C356.791,221.037,331.939,196.185,301.393,196.185z M326.224,315.736
		c0,13.693-11.14,24.832-24.831,24.832s-24.83-11.139-24.83-24.832v-64.152c0-13.692,11.14-24.832,24.83-24.832
		c13.691,0,24.831,11.14,24.831,24.832V315.736z"/>
</g>
</svg>
