<?xml version="1.0" encoding="utf-8"?>
<!-- Generator: Adobe Illustrator 16.0.0, SVG Export Plug-In . SVG Version: 6.00 Build 0)  -->
<!DOCTYPE svg PUBLIC "-//W3C//DTD SVG 1.1//EN" "http://www.w3.org/Graphics/SVG/1.1/DTD/svg11.dtd">
<svg version="1.1" id="Capa_1" xmlns="http://www.w3.org/2000/svg" xmlns:xlink="http://www.w3.org/1999/xlink" x="0px" y="0px"
	 width="612px" height="792px" viewBox="0 0 612 792" enable-background="new 0 0 612 792" xml:space="preserve">
<g>
	<g>
		<path fill="#FFFFFF" d="M523.655,416.703h-47.329c4.824,13.209,7.46,27.463,7.46,42.319v178.879c0,6.193-1.078,12.14-3.04,17.669
			h78.246c29.229,0,53.008-23.779,53.008-53.008v-97.516C612.001,456.335,572.369,416.703,523.655,416.703z"/>
	</g>
</g>
<g>
	<g>
		<path fill="#FFFFFF" d="M128.215,459.023c0-14.857,2.636-29.11,7.46-42.318h-47.33C39.632,416.705,0,456.337,0,505.051v97.516
			c0,29.228,23.778,53.008,53.007,53.008h78.248c-1.962-5.532-3.04-11.478-3.04-17.671V459.023L128.215,459.023z"/>
	</g>
</g>
<g>
	<g>
		<path fill="#FFFFFF" d="M360.102,370.678H251.899c-48.714,0-88.346,39.631-88.346,88.346v178.879
			c0,9.758,7.911,17.669,17.669,17.669h249.556c9.759,0,17.669-7.91,17.669-17.669v-178.88
			C448.447,410.31,408.815,370.678,360.102,370.678z"/>
	</g>
</g>
<g>
	<g>
		<path fill="#FFFFFF" d="M306.001,136.426c-58.585,0-106.247,47.662-106.247,106.248c0,39.738,21.933,74.444,54.323,92.666
			c15.364,8.642,33.076,13.581,51.924,13.581c18.848,0,36.56-4.939,51.923-13.581c32.393-18.222,54.323-52.929,54.323-92.666
			C412.247,184.089,364.585,136.426,306.001,136.426z"/>
	</g>
</g>
<g>
	<g>
		<path fill="#FFFFFF" d="M119.434,235.457c-43.814,0-79.458,35.645-79.458,79.458c0,43.814,35.644,79.459,79.458,79.459
			c11.114,0,21.697-2.302,31.311-6.44c16.622-7.156,30.328-19.824,38.809-35.692c5.953-11.137,9.339-23.842,9.339-37.326
			C198.892,271.102,163.248,235.457,119.434,235.457z"/>
	</g>
</g>
<g>
	<g>
		<path fill="#FFFFFF" d="M492.567,235.457c-43.813,0-79.458,35.645-79.458,79.458c0,13.486,3.386,26.191,9.339,37.326
			c8.479,15.869,22.187,28.537,38.809,35.692c9.613,4.138,20.197,6.44,31.312,6.44c43.813,0,79.459-35.645,79.459-79.459
			C572.026,271.101,536.382,235.457,492.567,235.457z"/>
	</g>
</g>
</svg>
