<?xml version="1.0" encoding="utf-8"?>
<!-- Generator: Adobe Illustrator 16.0.0, SVG Export Plug-In . SVG Version: 6.00 Build 0)  -->
<!DOCTYPE svg PUBLIC "-//W3C//DTD SVG 1.1//EN" "http://www.w3.org/Graphics/SVG/1.1/DTD/svg11.dtd">
<svg version="1.1" id="Layer_1" xmlns="http://www.w3.org/2000/svg" xmlns:xlink="http://www.w3.org/1999/xlink" x="0px" y="0px"
	 width="512px" height="512px" viewBox="0 0 512 512" enable-background="new 0 0 512 512" xml:space="preserve">
<g id="Cloud_Snow_Sunny">
	<g id="Outline">
		<path fill="#FFFFFF" d="M88.817,270.975C56.426,280.762,32,315.6,32,352c0,4.418,3.582,8,8,8s8-3.582,8-8
			c0-29.632,19.537-57.881,45.445-65.71c4.232-1.269,6.636-5.728,5.368-9.959s-5.727-6.636-9.959-5.368
			C88.842,270.967,88.829,270.971,88.817,270.975z"/>
		<path fill="#FFFFFF" d="M412.109,280c0,4.418,3.581,8,8,8c4.418,0,8-3.582,8-8c0-41.047-29.28-72-68.109-72c-4.418,0-8,3.582-8,8
			s3.582,8,8,8C389.707,224,412.109,248.075,412.109,280z"/>
		<path fill="#FFFFFF" d="M188.81,140.85c0.668,0.001,1.333-0.083,1.98-0.25h0.01c12.162-3.07,24.657-4.616,37.2-4.6
			c40.079,0.018,77.016,15.955,103.063,44.1C286.632,193.035,256.058,233.726,256,280c0,4.418,3.582,8,8,8s8-3.582,8-8
			c0.055-48.578,39.422-87.945,88-88c22.723-0.164,44.495,9.111,60.12,25.61c15.47,16.39,23.989,38.55,23.989,62.39
			c0.086,5.465-0.646,10.912-2.167,16.161c-36.95,1.83-55.125,20.291-63.915,35.917C371.916,343.102,368.481,355.406,368,368
			c0.001,4.404,3.568,7.979,7.973,7.986H376c4.399-0.006,7.972-3.561,8-7.959c0.016-2.271,1.106-55.278,62.718-56.01
			c21.351,7.444,39.362,24.969,46.102,44.981c1.102,3.242,4.146,5.422,7.569,5.42c0.878,0.002,1.75-0.144,2.58-0.431
			c4.178-1.43,6.408-5.969,4.99-10.149c-2.056-5.963-4.79-11.671-8.15-17.01c-3.325-5.298-7.205-10.229-11.568-14.71
			c-8.706-8.924-19.079-16.053-30.53-20.979c1.661-6.242,2.469-12.683,2.4-19.142c0.047-13.776-2.493-27.44-7.489-40.28
			c-4.756-12.273-11.843-23.51-20.87-33.09c-8.956-9.546-19.762-17.167-31.76-22.4c-12.589-5.48-26.182-8.283-39.91-8.23h-11.37
			c-14.339-17.469-32.408-31.506-52.88-41.08c-10.396-4.875-21.293-8.591-32.5-11.08c-11.582-2.562-23.409-3.85-35.27-3.84H228
			c-13.878-0.019-27.705,1.691-41.16,5.09c-4.286,1.074-6.889,5.419-5.815,9.705C181.919,138.363,185.131,140.862,188.81,140.85z"/>
		<path fill="#FFFFFF" d="M158.86,135.92c-1.235,0.002-2.454,0.29-3.56,0.84c-3.959,1.964-5.578,6.766-3.615,10.725
			c1.963,3.96,6.765,5.579,10.725,3.615l0.01-0.01c3.96-1.959,5.582-6.758,3.622-10.718
			C164.69,137.642,161.906,135.916,158.86,135.92z"/>
		<path fill="#FFFFFF" d="M152.01,440H112c-26.37,0-50.59-8.68-68.21-24.43C25.65,399.3,16.04,377.311,16,352
			c0.14-21.566,6.925-42.566,19.43-60.141c12.5-17.629,29.82-30.489,48.76-36.199c2.926-0.898,5.089-3.379,5.58-6.4
			c4.964-32.244,21.829-61.458,47.27-81.88c3.433-2.783,3.958-7.822,1.175-11.255c-2.783-3.433-7.822-3.958-11.255-1.175
			c-27.129,21.896-45.603,52.713-52.13,86.96c-10.567,3.815-20.451,9.309-29.27,16.27c-8.866,6.982-16.673,15.211-23.18,24.43
			c-7.088,9.998-12.633,21.006-16.45,32.65C2.019,327.115,0.018,339.518,0,352c-0.04,29.62,11.73,56.44,33.13,75.5
			C53.7,445.88,81.71,456,112,456h40c4.418,0.003,8.002-3.577,8.005-7.995S156.428,440.003,152.01,440z"/>
		<path fill="#FFFFFF" d="M504.4,378.05c-0.354-0.048-0.713-0.071-1.069-0.069c-4.003,0.011-7.384,2.974-7.92,6.939v0.01
			c-0.571,4.375,2.499,8.387,6.87,8.98c0.354,0.049,0.712,0.072,1.068,0.07c3.995-0.015,7.372-2.963,7.921-6.92v-0.021
			C511.854,382.661,508.778,378.639,504.4,378.05z"/>
		<path fill="#FFFFFF" d="M496.6,409.01c-3.657-2.472-8.627-1.51-11.099,2.149c0,0-0.001,0-0.001,0.001
			c-0.006,0-0.01,0.004-0.01,0.01l0,0C473.3,429.21,451.81,439.99,428,440h-52c-4.418,0-8,3.582-8,8s3.582,8,8,8h52l0.05-0.05V456
			c7.179,0.008,14.334-0.821,21.32-2.47c6.725-1.591,13.237-3.975,19.398-7.102c12.059-6.103,22.374-15.155,29.99-26.318
			C501.227,416.448,500.26,411.48,496.6,409.01z"/>
		<circle fill="#FFFFFF" cx="264" cy="416" r="8"/>
		<path fill="#FFFFFF" d="M272,371.314l21.657-21.657c3.124-3.124,3.124-8.19,0-11.314s-8.19-3.124-11.314,0L272,348.686V328
			c0-4.418-3.582-8-8-8s-8,3.582-8,8v20.688l-10.343-10.345c-3.125-3.124-8.19-3.124-11.314,0c-3.124,3.124-3.124,8.19,0,11.314
			L256,371.314V384c0,4.418,3.582,8,8,8s8-3.582,8-8V371.314z"/>
		<path fill="#FFFFFF" d="M272,460.686V448c0-4.418-3.582-8-8-8s-8,3.582-8,8v12.686l-21.657,21.657
			c-3.124,3.124-3.124,8.19,0,11.314c3.125,3.124,8.19,3.124,11.314,0L256,483.313V504c0,4.418,3.582,8,8,8s8-3.582,8-8v-20.686
			l10.343,10.343c3.124,3.124,8.19,3.124,11.314,0s3.124-8.19,0-11.314l0,0L272,460.686z"/>
		<path fill="#FFFFFF" d="M232,424c4.418,0,8-3.582,8-8s-3.582-8-8-8h-12.687l-21.656-21.657c-3.125-3.124-8.19-3.124-11.314,0
			c-3.124,3.124-3.124,8.19,0,11.314L196.687,408H176c-4.418,0-8,3.582-8,8s3.582,8,8,8h20.687l-10.344,10.343
			c-3.124,3.124-3.124,8.19,0,11.314c3.125,3.124,8.19,3.124,11.314,0L219.313,424H232z"/>
		<path fill="#FFFFFF" d="M352,408h-20.686l10.343-10.343c3.124-3.124,3.124-8.19,0-11.314s-8.19-3.124-11.314,0l0,0L308.686,408
			H296c-4.418,0-8,3.582-8,8s3.582,8,8,8h12.686l21.657,21.657c3.124,3.124,8.19,3.124,11.314,0s3.124-8.19,0-11.314L331.314,424
			H352c4.418,0,8-3.582,8-8S356.418,408,352,408z"/>
		<path fill="#FFFFFF" d="M209.941,362.343c-3.124,3.124-3.125,8.189,0,11.313c0,0,0,0,0,0.001l16,16
			c3.125,3.124,8.19,3.124,11.314,0c3.125-3.124,3.125-8.19,0-11.314l-16-16C218.131,359.219,213.065,359.219,209.941,362.343
			L209.941,362.343z"/>
		<path fill="#FFFFFF" d="M295.6,392c2.123,0.003,4.158-0.84,5.657-2.343l16-16c3.124-3.125,3.124-8.19,0-11.314
			c-3.125-3.124-8.189-3.124-11.315,0l0,0l-16,16c-3.123,3.124-3.123,8.189,0,11.313C291.441,391.157,293.479,392,295.6,392z"/>
		<path fill="#FFFFFF" d="M237.255,442.343c-3.124-3.124-8.189-3.124-11.313,0l0,0l-16,16c-3.124,3.124-3.124,8.19,0,11.314
			c3.125,3.124,8.19,3.124,11.314,0l16-16C240.379,450.533,240.379,445.468,237.255,442.343L237.255,442.343z"/>
		<path fill="#FFFFFF" d="M301.255,442.343c-3.124-3.124-8.19-3.125-11.313,0c-3.125,3.124-3.125,8.189-0.002,11.314l16,16
			c3.126,3.124,8.19,3.125,11.315,0c3.124-3.124,3.124-8.189,0-11.314l0,0L301.255,442.343z"/>
		<path fill="#FFFFFF" d="M273.514,109.529c3.787,2.274,8.701,1.046,10.977-2.742c25.013-41.688,79.085-55.207,120.772-30.193
			c37.582,22.549,52.852,69.312,35.818,109.693c-1.734,4.063,0.154,8.764,4.218,10.498c4.064,1.734,8.765-0.154,10.498-4.218
			c0.008-0.018,0.016-0.035,0.022-0.052c22.338-52.957-2.483-113.995-55.439-136.333C387.6,50.791,373.871,48.009,360,48
			c-36.529,0.116-70.354,19.279-89.229,50.553C268.498,102.341,269.725,107.255,273.514,109.529z"/>
		<path fill="#FFFFFF" d="M480,152c0,4.418,3.582,8,8,8h16c4.418,0,8-3.582,8-8s-3.582-8-8-8h-16C483.582,144,480,147.582,480,152z"
			/>
		<path fill="#FFFFFF" d="M360,32c4.418,0,8-3.582,8-8V8c0-4.418-3.582-8-8-8s-8,3.582-8,8v16C352,28.418,355.582,32,360,32z"/>
		<path fill="#FFFFFF" d="M450.51,69.49c2.122,0.002,4.158-0.841,5.657-2.343l11.313-11.314c3.104-3.143,3.074-8.208-0.067-11.313
			c-3.116-3.08-8.131-3.08-11.247,0l-11.313,11.313c-3.124,3.124-3.124,8.189,0,11.313C446.354,68.647,448.388,69.49,450.51,69.49z"
			/>
		<path fill="#FFFFFF" d="M263.833,67.147c3.124,3.125,8.19,3.125,11.313,0c3.125-3.125,3.125-8.19,0-11.314l0,0L263.834,44.52
			c-3.143-3.105-8.208-3.076-11.313,0.067c-3.079,3.116-3.08,8.129,0,11.246L263.833,67.147z"/>
		<path fill="#FFFFFF" d="M478.355,111.251c1.044,0,2.077-0.206,3.044-0.605l14.794-6.093c4.097-1.653,6.078-6.315,4.425-10.412
			c-1.653-4.098-6.315-6.079-10.413-4.425c-0.035,0.014-0.07,0.028-0.105,0.043l-14.794,6.094c-4.087,1.679-6.039,6.353-4.359,10.44
			c1.233,3.004,4.162,4.964,7.41,4.96L478.355,111.251L478.355,111.251z"/>
		<path fill="#FFFFFF" d="M475.306,208.147l14.794,6.094c4.073,1.711,8.765-0.203,10.476-4.276
			c1.712-4.074-0.203-8.763-4.276-10.475c-0.035-0.015-0.068-0.029-0.104-0.043l-14.793-6.093c-4.063-1.735-8.766,0.152-10.5,4.215
			s0.151,8.764,4.216,10.499C475.18,208.095,475.243,208.122,475.306,208.147L475.306,208.147z"/>
		<path fill="#FFFFFF" d="M223.806,104.553l14.794,6.093c4.066,1.728,8.764-0.169,10.491-4.236
			c1.728-4.066-0.169-8.764-4.235-10.491c-0.054-0.023-0.107-0.045-0.162-0.066L229.9,89.759c-4.088-1.675-8.761,0.281-10.436,4.369
			C217.793,98.206,219.734,102.867,223.806,104.553z"/>
		<path fill="#FFFFFF" d="M304.074,36.586c1.675,4.089,6.347,6.046,10.436,4.371s6.046-6.347,4.371-10.436l-6.064-14.806
			c-1.676-4.088-6.349-6.045-10.438-4.37c-4.088,1.675-6.045,6.347-4.37,10.437L304.074,36.586z"/>
		<path fill="#FFFFFF" d="M405.49,40.957c4.084,1.677,8.754-0.275,10.431-4.359c0.002-0.004,0.004-0.008,0.005-0.012l6.065-14.806
			c1.675-4.089-0.282-8.761-4.371-10.437c-4.088-1.675-8.761,0.282-10.437,4.37l-6.064,14.806
			C399.444,34.609,401.4,39.282,405.49,40.957C405.489,40.957,405.489,40.957,405.49,40.957z"/>
	</g>
</g>
</svg>
