<?xml version="1.0" encoding="utf-8"?>
<!-- Generator: Adobe Illustrator 16.0.0, SVG Export Plug-In . SVG Version: 6.00 Build 0)  -->
<!DOCTYPE svg PUBLIC "-//W3C//DTD SVG 1.1//EN" "http://www.w3.org/Graphics/SVG/1.1/DTD/svg11.dtd">
<svg version="1.1" id="Layer_1" xmlns="http://www.w3.org/2000/svg" xmlns:xlink="http://www.w3.org/1999/xlink" x="0px" y="0px"
	 width="612px" height="792px" viewBox="0 0 612 792" enable-background="new 0 0 612 792" xml:space="preserve">
<g>
	<g>
		<g>
			<path fill="#FFFFFF" d="M142.988,215.045c-1.2-3.932-4.314-6.996-8.247-8.145c-4.008-1.174-8.248-0.205-11.362,2.477
				c-62.043,53.415-97.635,130.828-97.635,212.327c0,109.789,64.801,210.03,165.119,255.324c1.608,0.714,3.294,1.071,5.004,1.071
				c1.762,0,3.523-0.383,5.184-1.148c3.217-1.507,5.617-4.341,6.562-7.787c19.558-70.521,19.711-216.516,0.077-265.614
				C179.142,329.431,156.75,260.136,142.988,215.045L142.988,215.045z"/>
			<path fill="#FFFFFF" d="M410.798,667.275c-113.696-242.763,44.911-504.342,46.545-506.946c1.992-3.217,2.451-7.124,1.251-10.699
				c-1.174-3.6-3.882-6.459-7.379-7.864L323.554,90.703c-0.511-0.205-1.021-0.153-1.557-0.281c-0.664-0.178-1.251-0.281-1.94-0.358
				c-1.455-0.153-2.834-0.025-4.213,0.306c-0.356,0.077-0.74-0.051-1.072,0.077l-153.193,51.065
				c-6.486,2.145-10.111,8.987-8.272,15.549c0,0,3.6,12.792,9.753,34.162c14.682,49.099,40.495,130.343,73.788,215.52
				c19.073,66.128,14.579,207.398-4.213,272.251c-0.919,3.191-0.511,6.664,1.174,9.55s4.468,4.954,7.736,5.72
				C263.297,699.396,285,702,306.014,702c3.038,0,6.052-0.179,9.038-0.408l4.289-0.255c0.025,0,0.025,0,0.052-0.025
				c37.381-0.128,67.15-10.288,79.15-15.113c0.74-0.153,1.634-0.128,2.298-0.384c1.302-0.484,2.527-0.995,3.701-1.531
				c0.025,0,0.052,0,0.077-0.025c0.024,0,0.024-0.025,0.052-0.025c0.076-0.023,0.152-0.051,0.204-0.075
				c0.843-0.436,1.48-1.124,2.222-1.71c0.536-0.436,1.2-0.768,1.66-1.277c0.435-0.511,0.664-1.149,1.021-1.71
				c0.536-0.843,1.124-1.634,1.455-2.553c0.024-0.053,0.052-0.077,0.076-0.129c0.204-0.639,0.128-1.276,0.255-1.914
				c0.153-0.996,0.408-1.915,0.357-2.859c-0.052-0.996-0.408-1.915-0.714-2.886C411.028,668.501,411.028,667.888,410.798,667.275z
				 M327.971,154.738c0.664-14.017,1.431-25.405,2.067-33.933l98.097,39.243c-20.707,38.17-77.389,155.237-83.031,294.797
				C324.115,332.673,325.289,214.968,327.971,154.738z M330.371,676.467c-0.996-16.673-3.855-49.149-11.771-91.509
				c17.438,31.481,35.72,60.053,54.613,84.079C362.159,672.229,347.324,675.369,330.371,676.467z"/>
			<path fill="#FFFFFF" d="M480.629,202.688c-2.886-2.298-6.688-3.166-10.289-2.375c-3.601,0.818-6.64,3.217-8.272,6.536
				c-36.485,74.759-112.189,268.116-27.906,448.784c1.479,3.141,4.213,5.516,7.507,6.511c1.148,0.357,2.35,0.512,3.523,0.512
				c2.222,0,4.417-0.588,6.356-1.763c84.358-51.447,134.71-140.861,134.71-239.213C586.282,336.095,547.779,256.281,480.629,202.688
				L480.629,202.688z"/>
		</g>
	</g>
</g>
</svg>
