<?xml version="1.0" encoding="utf-8"?>
<!-- Generator: Adobe Illustrator 16.0.0, SVG Export Plug-In . SVG Version: 6.00 Build 0)  -->
<!DOCTYPE svg PUBLIC "-//W3C//DTD SVG 1.1//EN" "http://www.w3.org/Graphics/SVG/1.1/DTD/svg11.dtd">
<svg version="1.1" id="Capa_1" xmlns="http://www.w3.org/2000/svg" xmlns:xlink="http://www.w3.org/1999/xlink" x="0px" y="0px"
	 width="512px" height="512px" viewBox="0 0 512 512" enable-background="new 0 0 512 512" xml:space="preserve">
<g>
	<g>
		<path fill="#FFFFFF" d="M498.602,126.863c-9.419-10.1-22.742-15.893-36.557-15.893c-4.672,0-9.249,0.635-13.642,1.876V85.791
			c0-17.377-14.149-31.514-31.542-31.514H277.542c-8.343,0-15.938,3.253-21.584,8.555c-5.638-5.255-13.199-8.475-21.5-8.475H95.138
			c-17.392,0-31.542,14.137-31.542,31.514v217.263c-5.433-1.538-11.138-2.161-16.859-1.803
			c-24.84,1.563-44.878,21.442-46.611,46.239c-0.978,14,3.736,27.343,13.273,37.568c9.419,10.101,22.743,15.895,36.556,15.895
			c4.672,0,9.25-0.636,13.642-1.876v27.057c0,17.377,14.15,31.515,31.542,31.515h139.319c8.342,0,15.938-3.254,21.584-8.556
			c5.638,5.255,13.198,8.476,21.5,8.476h139.319c17.393,0,31.542-14.138,31.542-31.515V208.869
			c5.433,1.538,11.135,2.16,16.858,1.803c24.84-1.564,44.877-21.443,46.61-46.24C512.852,150.432,508.138,137.09,498.602,126.863
			L498.602,126.863z M246,426.211c0,6.349-5.178,11.514-11.542,11.514H95.138c-6.364,0-11.542-5.165-11.542-11.514v-42.577
			c0-3.569-1.732-7.004-4.778-8.864c-1.614-0.986-3.422-1.472-5.221-1.472c-2.091,0-4.17,0.655-5.919,1.938
			c-5.575,4.095-12.278,6.104-19.274,5.756c-7.338-0.365-14.352-3.471-19.561-8.65c-6.259-6.225-9.381-14.58-8.766-23.379
			c1.037-14.84,13.039-26.736,27.917-27.674c7.087-0.439,13.821,1.49,19.504,5.602c2.365,1.711,5.336,2.482,8.187,1.855
			c4.739-1.043,7.911-5.176,7.911-9.785V266.04h50.566c0.012,0,0.569-0.043,1.498-0.117c8.12-0.641,11.827-10.45,6.166-16.307
			l-0.004-0.005c-4.5-5.362-6.978-12.176-6.978-19.186c0-8.373,3.377-16.134,9.51-21.854c6.142-5.729,14.174-8.56,22.616-7.972
			c14.865,1.036,26.782,13.018,27.72,27.87c0.481,7.618-1.893,15.014-6.689,20.868c-2.103,2.567-3.088,5.944-2.262,9.158
			c1.161,4.521,5.193,7.544,9.696,7.544h50.566L246,426.211L246,426.211z M428.403,426.131c0,6.35-5.179,11.514-11.542,11.514
			H277.542c-6.364,0-11.542-5.164-11.542-11.514v-160.17h33.744c-1.973,5.99-2.801,12.363-2.395,18.83
			c1.565,24.813,21.467,44.832,46.289,46.563c1.212,0.084,2.419,0.125,3.619,0.125c12.702,0,24.671-4.695,34.028-13.424
			c10.084-9.406,15.868-22.703,15.868-36.479c0-5.339-0.861-10.608-2.514-15.613h33.761L428.403,426.131L428.403,426.131z
			 M491.922,163.039c-1.037,14.84-13.039,26.737-27.916,27.674c-7.09,0.444-13.819-1.49-19.503-5.6
			c-2.366-1.711-5.338-2.483-8.19-1.855c-4.738,1.042-7.909,5.174-7.909,9.785v52.92h-50.565c-0.003,0-0.034,0.003-0.09,0.009
			c-7.954,0.797-12.131,9.849-7.573,16.415l0.003,0.004c3.395,4.111,5.779,9.014,6.598,14.28
			c1.583,10.207-1.813,19.937-9.129,26.761c-6.143,5.729-14.18,8.561-22.615,7.971c-14.865-1.035-26.782-13.018-27.721-27.869
			c-0.487-7.736,1.969-15.244,6.916-21.143c0.001,0,0.119-0.209,0.326-0.574c3.732-6.604-0.415-14.917-7.943-15.85
			c-0.026-0.003-0.04-0.005-0.042-0.005h-50.566v-28.537c0-5.326-4.019-9.977-9.335-10.321c-5.824-0.377-10.665,4.235-10.665,9.978
			v28.958h-33.745c1.972-5.99,2.802-12.364,2.394-18.83c-1.566-24.813-21.466-44.832-46.289-46.562
			c-14.036-0.976-27.406,3.744-37.648,13.297c-10.084,9.406-15.868,22.703-15.868,36.48c0,5.338,0.861,10.609,2.512,15.614h-33.76
			V85.869c0-6.349,5.178-11.514,11.542-11.514h139.32c6.364,0,11.542,5.165,11.542,11.514v0.004c0,0,0,0.003,0,0.004v40.451
			c0,5.326,4.019,9.977,9.335,10.321c5.824,0.377,10.665-4.235,10.665-9.978V85.877c0-0.001,0-0.003,0-0.004s0-0.003,0-0.004
			c0-0.018,0-0.035,0-0.053c0-0.009,0-0.017,0-0.026c0-6.349,5.179-11.514,11.542-11.514h139.319
			c6.363,0,11.542,5.165,11.542,11.514v42.683c0,2.967,1.196,5.863,3.45,7.793c3.641,3.117,8.785,3.202,12.469,0.498
			c5.575-4.094,12.277-6.103,19.273-5.755c7.338,0.365,14.353,3.47,19.562,8.65C489.416,145.884,492.537,154.241,491.922,163.039z"
			/>
		<g>
			<path fill="#FFFFFF" d="M256,181.69c-4.178,0-7.985-2.69-9.402-6.615c-1.38-3.821-0.245-8.221,2.808-10.902
				c3.272-2.873,8.176-3.255,11.87-0.97c3.471,2.146,5.318,6.354,4.543,10.361C264.917,178.221,260.749,181.69,256,181.69z"/>
		</g>
	</g>
</g>
</svg>
