<?xml version="1.0" encoding="utf-8"?>
<!-- Generator: Adobe Illustrator 16.0.0, SVG Export Plug-In . SVG Version: 6.00 Build 0)  -->
<!DOCTYPE svg PUBLIC "-//W3C//DTD SVG 1.1//EN" "http://www.w3.org/Graphics/SVG/1.1/DTD/svg11.dtd">
<svg version="1.1" id="Capa_1" xmlns="http://www.w3.org/2000/svg" xmlns:xlink="http://www.w3.org/1999/xlink" x="0px" y="0px"
	 width="512px" height="512px" viewBox="0 0 512 512" enable-background="new 0 0 512 512" xml:space="preserve">
<path fill="#FFFFFF" d="M512,358.121c0-68.38-26.629-132.667-74.98-181.02c-48.353-48.352-112.64-74.98-181.02-74.98
	s-132.667,26.629-181.02,74.98C26.629,225.454,0,289.741,0,358.121v15h205.016c4.085,12.322,12.371,22.643,23.657,29.305
	c8.558,5.052,17.953,7.453,27.236,7.453c18.405,0,36.36-9.448,46.376-26.413c1.956-3.313,3.521-6.78,4.717-10.345H512V358.121z
	 M276.452,368.214c-6.656,11.276-21.247,15.037-32.526,8.378c-5.463-3.225-9.343-8.384-10.925-14.527
	c-1.583-6.145-0.679-12.535,2.547-17.998s8.385-9.344,14.528-10.926c1.976-0.509,3.977-0.76,5.964-0.76
	c4.194,0,8.328,1.12,12.034,3.309c5.463,3.226,9.343,8.385,10.925,14.527C280.582,356.359,279.678,362.752,276.452,368.214
	L276.452,368.214z M308.141,343.121c-0.03-0.129-0.057-0.26-0.09-0.389c-2.296-8.916-6.74-16.907-12.887-23.424l43.104-73.017
	l-25.834-15.252l-43.104,73.017c-8.676-2.233-17.819-2.266-26.737,0.03c-13.903,3.581-25.58,12.362-32.879,24.728
	c-2.674,4.528-4.636,9.344-5.882,14.307H30.492c1.992-30.247,9.976-58.88,22.75-84.742l33.311,19.232l15-25.98l-33.274-19.21
	c16.444-24.477,37.541-45.578,62.018-62.022l19.212,33.276l25.98-15l-19.236-33.318c25.861-12.774,54.5-20.737,84.746-22.729v38.493
	h30v-38.493c30.246,1.992,58.885,9.955,84.746,22.729l-19.236,33.318l25.98,15l19.212-33.276
	c24.477,16.444,45.573,37.545,62.018,62.022l-33.272,19.21l15,25.98l33.311-19.232c12.774,25.862,20.758,54.495,22.75,84.742
	H308.141z"/>
</svg>
