<?xml version="1.0" encoding="utf-8"?>
<!-- Generator: Adobe Illustrator 16.0.0, SVG Export Plug-In . SVG Version: 6.00 Build 0)  -->
<!DOCTYPE svg PUBLIC "-//W3C//DTD SVG 1.1//EN" "http://www.w3.org/Graphics/SVG/1.1/DTD/svg11.dtd">
<svg version="1.1" id="Layer_1" xmlns="http://www.w3.org/2000/svg" xmlns:xlink="http://www.w3.org/1999/xlink" x="0px" y="0px"
	 width="512px" height="512px" viewBox="0 0 512 512" enable-background="new 0 0 512 512" xml:space="preserve">
<path fill="#FFFFFF" d="M11.973,262.829h172.766c7.227,27.801,29.328,49.237,55.934,56.301c4.004,1.06,8.109-1.323,9.172-5.328
	c1.066-4.004-1.32-8.108-5.324-9.172c-10.828-2.875-20.441-8.457-28.57-16.586c-33.258-33.254-20.145-89.512,23.645-105.074
	c2.063-0.734-5.852,1.742,117.945-36.516c-2.301,7.43-34.332,111.078-35.652,115.344c-6.711,21.72-23.922,37.849-46.035,43.152
	c-4.026,0.965-6.512,5.012-5.547,9.039c0.965,4.026,5.012,6.512,9.043,5.547c27.32-6.552,48.582-26.478,56.875-53.306l1.052-3.401
	H500.03c6.711,0,12.112-5.504,11.973-12.254C509.031,111.583,395.586,0.001,256,0.001C119.293,0.001,3.004,108.837,0.004,250.575
	C-0.141,257.298,5.242,262.829,11.973,262.829z M496.914,247.829h-52.633c-1.969-45.543-20.168-87.566-49.816-119.621
	c25.996-25.996,22.07-22.07,37.215-37.215C471.891,133.728,494.926,189.032,496.914,247.829z M263.5,15.114
	c59.066,1.797,114.504,24.762,157.566,65.277l-37.207,37.207c-33.023-30.55-75.395-48.117-120.359-49.855V15.114z M255.973,82.599
	h0.047c93.43,0,168.945,73.398,173.238,165.23h-87.352l30.617-99.063c1.52-4.918,0.198-10.23-3.438-13.867
	s-8.949-4.953-13.863-3.434c-127.988,39.555-122.348,37.348-131.031,41.902c-28.293,14.84-43.563,44.613-41.816,74.461H82.742
	C87.145,155.142,163.547,82.599,255.973,82.599z M248.5,15.11v52.637c-45.98,1.785-87.992,19.918-120.359,49.852
	C102.25,91.708,101.988,91.45,91.012,80.474C136.535,38.782,189.453,16.821,248.5,15.11z M80.32,90.993l37.215,37.215
	c-29.727,32.18-47.84,74.137-49.816,119.621H15.082C17.063,189.052,40.098,133.751,80.32,90.993z"/>
<path fill="#FFFFFF" d="M291.289,265.691c2.375-3.395,1.551-8.069-1.844-10.444c-3.391-2.375-8.07-1.551-10.445,1.844
	c-8.289,11.849-25.121,13.195-35.211,3.104c-8.992-8.991-8.992-23.62,0-32.612c10.094-10.094,26.918-8.734,35.211,3.109
	c2.375,3.391,7.055,4.215,10.445,1.84c3.395-2.375,4.219-7.055,1.844-10.445c-13.668-19.504-41.43-21.789-58.105-5.109
	c-14.84,14.84-14.84,38.984,0,53.824C249.895,287.518,277.664,285.148,291.289,265.691z"/>
</svg>
