<?xml version="1.0" encoding="utf-8"?>
<!-- Generator: Adobe Illustrator 16.0.0, SVG Export Plug-In . SVG Version: 6.00 Build 0)  -->
<!DOCTYPE svg PUBLIC "-//W3C//DTD SVG 1.1//EN" "http://www.w3.org/Graphics/SVG/1.1/DTD/svg11.dtd">
<svg version="1.1" id="Capa_1" xmlns="http://www.w3.org/2000/svg" xmlns:xlink="http://www.w3.org/1999/xlink" x="0px" y="0px"
	 width="512px" height="512px" viewBox="0 0 512 512" enable-background="new 0 0 512 512" xml:space="preserve">
<g>
	<g>
		<path fill="#FFFFFF" d="M452.42,210.226c10.146-15.543,8.272-35.766-4.557-49.18c-5.654-5.912-8.019-14.218-6.323-22.22
			c3.847-18.159-5.206-36.34-22.015-44.213c-7.408-3.47-12.612-10.362-13.925-18.436c-2.973-18.322-17.981-32.005-36.5-33.275
			c-8.159-0.56-15.504-5.106-19.643-12.162c-9.392-16.009-28.326-23.346-46.058-17.842c-7.812,2.426-16.299,0.838-22.709-4.245
			c-14.541-11.536-34.849-11.536-49.388,0c-6.408,5.085-14.898,6.671-22.709,4.245c-17.726-5.505-36.665,1.832-46.056,17.842
			c-4.139,7.056-11.481,11.602-19.642,12.162c-18.518,1.27-33.527,14.954-36.501,33.275c-1.31,8.074-6.515,14.966-13.922,18.436
			c-16.808,7.874-25.861,26.055-22.016,44.213c1.695,8.002-0.669,16.309-6.322,22.221c-12.828,13.414-14.703,33.638-4.557,49.181
			c4.471,6.849,5.268,15.449,2.131,23.004c-7.117,17.142-1.558,36.677,13.516,47.504c6.644,4.772,10.493,12.505,10.297,20.682
			c-0.443,18.555,11.797,34.764,29.765,39.415c5.304,1.373,9.912,4.442,13.214,8.628l-41.324,99.763
			c-5.791,13.981,7.316,28.378,21.769,23.941l45.242-13.884c1.322-0.403,2.748,0.188,3.395,1.407l22.173,41.808
			c7.093,13.374,26.538,12.43,32.322-1.535l43.071-103.979c0.565-0.021,1.13-0.021,1.697,0l43.069,103.979
			c5.795,13.987,25.239,14.891,32.323,1.536l22.173-41.809c0.646-1.222,2.073-1.813,3.395-1.406l45.241,13.884
			c14.461,4.439,27.56-9.968,21.771-23.941l-41.325-99.763c3.302-4.187,7.91-7.255,13.214-8.628
			c17.968-4.65,30.207-20.859,29.765-39.415c-0.194-8.177,3.654-15.907,10.298-20.68c15.075-10.829,20.634-30.364,13.517-47.506
			C447.153,225.675,447.95,217.075,452.42,210.226L452.42,210.226z M198.224,495.219c-0.941,2.272-4.067,2.411-5.214,0.248
			l-22.173-41.808c-4.011-7.563-12.862-11.229-21.045-8.717l-45.242,13.884c-2.347,0.718-4.452-1.594-3.512-3.863L137.7,366.45
			c8.272,11.331,22.1,17.646,36.657,15.946c8.124-0.947,16.177,2.17,21.542,8.345c7.783,8.96,18.75,13.716,29.939,13.715
			c3.539,0,7.099-0.495,10.589-1.464L198.224,495.219z M407.451,458.825l-45.241-13.884c-8.183-2.512-17.036,1.153-21.046,8.717
			l-22.173,41.808c-1.146,2.161-4.275,2.021-5.215-0.248l-38.195-92.209c14.519,4.03,30.278-0.479,40.521-12.27
			c5.364-6.175,13.414-9.296,21.542-8.345c14.571,1.703,28.392-4.614,36.657-15.945l36.664,88.51
			C411.907,457.237,409.79,459.54,407.451,458.825L407.451,458.825z M439.861,202.028c-7.184,11.003-8.462,24.817-3.425,36.953
			c4.431,10.671,0.972,22.832-8.413,29.574c-10.674,7.665-16.856,20.084-16.542,33.219c0.274,11.554-7.346,21.644-18.53,24.537
			c-10.463,2.709-19.249,9.521-24.52,18.729c-0.014,0.026-0.027,0.053-0.043,0.079c-1.115,1.963-2.085,4.027-2.862,6.193
			c-3.915,10.871-14.658,17.533-26.143,16.188c-13.049-1.525-25.987,3.486-34.604,13.405c-7.576,8.723-20.006,11.046-30.223,5.649
			c-3.477-1.836-7.156-3.109-10.914-3.847c-0.031-0.007-0.063-0.015-0.094-0.021c-4.99-0.967-10.122-0.965-15.114,0.004
			c-0.018,0.004-0.035,0.009-0.053,0.012c-3.767,0.736-7.454,2.013-10.937,3.852c-10.218,5.396-22.646,3.072-30.223-5.649
			c-7.598-8.744-18.551-13.675-29.982-13.675c-1.534,0-3.079,0.088-4.624,0.271c-11.472,1.343-22.227-5.313-26.142-16.188
			c-0.779-2.162-1.745-4.226-2.861-6.188c-0.017-0.032-0.034-0.063-0.051-0.094c-5.27-9.205-14.053-16.012-24.513-18.721
			c-11.186-2.896-18.805-12.984-18.529-24.535c0.314-13.137-5.87-25.555-16.542-33.223c-9.384-6.74-12.845-18.902-8.414-29.574
			c5.038-12.136,3.758-25.95-3.424-36.953c-6.315-9.675-5.149-22.265,2.838-30.615c9.081-9.496,12.878-22.84,10.156-35.694
			c-2.394-11.304,3.242-22.622,13.705-27.524c11.899-5.574,20.259-16.645,22.365-29.615c1.851-11.406,11.195-19.924,22.722-20.714
			c13.109-0.899,24.905-8.202,31.553-19.537c5.847-9.966,17.639-14.532,28.67-11.106c12.549,3.897,26.186,1.348,36.48-6.819
			c9.05-7.182,21.694-7.182,30.747,0c10.293,8.166,23.929,10.717,36.479,6.819c11.033-3.427,22.823,1.141,28.67,11.106
			c6.646,11.334,18.442,18.637,31.553,19.537c11.527,0.791,20.871,9.309,22.722,20.714c2.106,12.97,10.467,24.041,22.365,29.616
			c10.464,4.901,16.099,16.219,13.705,27.523c-2.722,12.854,1.074,26.198,10.156,35.694
			C445.01,179.762,446.176,192.352,439.861,202.028z"/>
		<path fill="#FFFFFF" d="M113.951,192.129c4.107,0.505,7.854-2.417,8.359-6.527C130.592,118.287,188.067,67.526,256,67.526
			c67.966,0,125.443,50.788,133.698,118.139c0.466,3.801,3.7,6.588,7.434,6.588c0.305,0,0.612-0.019,0.922-0.057
			c4.111-0.504,7.035-4.245,6.532-8.356C395.41,108.979,331.532,52.527,256,52.527c-75.497,0-139.371,56.422-148.577,131.243
			C106.918,187.881,109.84,191.623,113.951,192.129L113.951,192.129z"/>
		<path fill="#FFFFFF" d="M398.055,212.26c-4.099-0.5-7.852,2.421-8.354,6.532c-8.252,67.354-65.73,118.146-133.699,118.146
			c-67.938,0-125.413-50.767-133.692-118.085c-0.505-4.11-4.245-7.031-8.359-6.528c-4.11,0.505-7.034,4.248-6.528,8.359
			C116.624,295.51,180.498,351.936,256,351.936c75.536,0,139.414-56.455,148.586-131.319
			C405.09,216.505,402.166,212.764,398.055,212.26z"/>
		<path fill="#FFFFFF" d="M361.899,171.281c-1.906-5.866-7.12-9.8-13.285-10.021l-58.802-2.109l-20.178-55.272
			c-2.113-5.794-7.467-9.538-13.635-9.538s-11.52,3.744-13.635,9.538l-20.177,55.272l-58.801,2.109
			c-6.164,0.221-11.379,4.155-13.285,10.021c-1.906,5.866,0,12.114,4.857,15.916l46.331,36.269l-16.164,56.576
			c-1.695,5.931,0.435,12.106,5.426,15.731c4.985,3.623,11.516,3.746,16.637,0.299L256,263.215l48.811,32.855
			c5.115,3.443,11.646,3.328,16.639-0.299c4.991-3.625,7.12-9.799,5.425-15.731l-16.164-56.575l46.331-36.269
			C361.898,183.394,363.805,177.147,361.899,171.281L361.899,171.281z M301.209,211.855c-4.675,3.66-6.643,9.713-5.01,15.419
			l15.89,55.615l-47.981-32.297c-2.463-1.658-5.284-2.487-8.106-2.487c-2.822,0-5.644,0.829-8.106,2.486l-47.983,32.298
			l15.89-55.615c1.631-5.708-0.335-11.759-5.009-15.419l-45.546-35.654l57.805-2.074c5.932-0.213,11.08-3.954,13.115-9.529
			l19.835-54.334l19.835,54.334c2.036,5.575,7.185,9.316,13.115,9.528l57.803,2.074L301.209,211.855z"/>
	</g>
</g>
</svg>
