<?xml version="1.0" encoding="utf-8"?>
<!-- Generator: Adobe Illustrator 16.0.0, SVG Export Plug-In . SVG Version: 6.00 Build 0)  -->
<!DOCTYPE svg PUBLIC "-//W3C//DTD SVG 1.1//EN" "http://www.w3.org/Graphics/SVG/1.1/DTD/svg11.dtd">
<svg version="1.1" id="light" xmlns="http://www.w3.org/2000/svg" xmlns:xlink="http://www.w3.org/1999/xlink" x="0px" y="0px"
	 width="512px" height="512px" viewBox="0 0 512 512" enable-background="new 0 0 512 512" xml:space="preserve">
<g>
	<path fill="#FFFFFF" d="M458.667,448H53.333C23.936,448,0,424.064,0,394.666V117.333C0,87.936,23.936,64,53.333,64h405.333
		C488.064,64,512,87.936,512,117.333v277.333C512,424.064,488.064,448,458.667,448z M53.333,85.333c-17.643,0-32,14.357-32,32
		v277.333c0,17.644,14.357,32.001,32,32.001h405.333c17.643,0,32-14.357,32-32.001V117.333c0-17.643-14.357-32-32-32H53.333z"/>
</g>
<g>
	<path fill="#FFFFFF" d="M160,256c-29.397,0-53.333-23.936-53.333-53.333c0-29.397,23.936-53.333,53.333-53.333
		s53.333,23.936,53.333,53.333C213.333,232.064,189.397,256,160,256z M160,170.667c-17.643,0-32,14.357-32,32
		c0,17.643,14.357,32,32,32s32-14.357,32-32C192,185.024,177.643,170.667,160,170.667z"/>
</g>
<g>
	<path fill="#FFFFFF" d="M245.333,362.666c-5.888,0-10.667-4.777-10.667-10.666v-21.334c0-17.643-14.357-32-32-32h-85.333
		c-17.643,0-32,14.357-32,32V352c0,5.889-4.779,10.666-10.667,10.666C68.779,362.666,64,357.889,64,352v-21.334
		c0-29.396,23.936-53.332,53.333-53.332h85.333c29.397,0,53.333,23.936,53.333,53.332V352
		C256,357.889,251.221,362.666,245.333,362.666z"/>
</g>
<g>
	<path fill="#FFFFFF" d="M437.333,192h-128c-5.888,0-10.667-4.779-10.667-10.667c0-5.888,4.779-10.667,10.667-10.667h128
		c5.889,0,10.667,4.779,10.667,10.667C448,187.221,443.222,192,437.333,192z"/>
</g>
<g>
	<path fill="#FFFFFF" d="M437.333,277.334h-128c-5.888,0-10.667-4.779-10.667-10.668c0-5.887,4.779-10.666,10.667-10.666h128
		c5.889,0,10.667,4.779,10.667,10.666C448,272.555,443.222,277.334,437.333,277.334z"/>
</g>
<g>
	<path fill="#FFFFFF" d="M437.333,362.666h-128c-5.888,0-10.667-4.777-10.667-10.666s4.779-10.666,10.667-10.666h128
		c5.889,0,10.667,4.777,10.667,10.666S443.222,362.666,437.333,362.666z"/>
</g>
</svg>
